<?xml version="1.0" encoding="UTF-8" standalone="no"?>
<svg
   width="64"
   height="64"
   xml:space="preserve"
   version="1.1"
   id="svg23"
   sodipodi:docname="console-white-64.svg"
   inkscape:version="1.2.1 (9c6d41e, 2022-07-14)"
   xmlns:inkscape="http://www.inkscape.org/namespaces/inkscape"
   xmlns:sodipodi="http://sodipodi.sourceforge.net/DTD/sodipodi-0.dtd"
   xmlns="http://www.w3.org/2000/svg"
   xmlns:svg="http://www.w3.org/2000/svg"><defs
   id="defs27" /><sodipodi:namedview
   id="namedview25"
   pagecolor="#505050"
   bordercolor="#eeeeee"
   borderopacity="1"
   inkscape:showpageshadow="0"
   inkscape:pageopacity="0"
   inkscape:pagecheckerboard="0"
   inkscape:deskcolor="#505050"
   showgrid="false"
   inkscape:zoom="14.932844"
   inkscape:cx="38.103927"
   inkscape:cy="15.268357"
   inkscape:window-width="1586"
   inkscape:window-height="950"
   inkscape:window-x="0"
   inkscape:window-y="25"
   inkscape:window-maximized="0"
   inkscape:current-layer="svg23" />

 <g
   id="g21"
   transform="matrix(0.16877285,0,0,0.16877285,0.06696648,0.07849827)">
  <title
   id="title2">Layer 1</title>
  <g
   id="svg_1">
   <path
   fill="#ffffff"
   id="svg_2"
   d="M 348.386,0.175 H 29.625 C 13.292,0.175 0,13.461 0,29.795 v 318.428 c 0,16.332 13.292,29.618 29.625,29.618 H 348.39 c 16.336,0 29.626,-13.291 29.626,-29.618 V 29.795 C 378.011,13.461 364.719,0.175 348.386,0.175 Z m -20.077,33.716 c 7.01,0 12.695,5.682 12.695,12.698 0,7.015 -5.686,12.698 -12.695,12.698 -7.014,0 -12.7,-5.683 -12.7,-12.698 -10e-4,-7.016 5.686,-12.698 12.7,-12.698 z m -45.493,0 c 7.014,0 12.704,5.682 12.704,12.698 0,7.015 -5.69,12.698 -12.704,12.698 -7.004,0 -12.691,-5.683 -12.691,-12.698 0,-7.016 5.687,-12.698 12.691,-12.698 z m 61.339,310.097 H 33.855 V 90.8 H 344.161 V 343.988 Z M 180.663,185.495 78.474,232.331 v -22.562 l 78.997,-33.85 v -0.426 L 78.474,141.638 V 119.08 l 102.189,46.832 z m 118.885,39.119 H 193.09 v -10.637 h 106.458 z" />
  </g>
  <g
   id="svg_3" />
  <g
   id="svg_4" />
  <g
   id="svg_5" />
  <g
   id="svg_6" />
  <g
   id="svg_7" />
  <g
   id="svg_8" />
  <g
   id="svg_9" />
  <g
   id="svg_10" />
  <g
   id="svg_11" />
  <g
   id="svg_12" />
  <g
   id="svg_13" />
  <g
   id="svg_14" />
  <g
   id="svg_15" />
  <g
   id="svg_16" />
  <g
   id="svg_17" />
 </g>
</svg>
