<svg width="378.017" height="378.016" xmlns="http://www.w3.org/2000/svg" xml:space="preserve" version="1.1">

 <g>
  <title>Layer 1</title>
  <g id="svg_1">
   <path fill="#ffffff" id="svg_2" d="m348.386,0.175l-318.761,0c-16.333,0 -29.625,13.286 -29.625,29.62l0,318.428c0,16.332 13.292,29.618 29.625,29.618l318.765,0c16.336,0 29.626,-13.291 29.626,-29.618l0,-318.428c-0.005,-16.334 -13.297,-29.62 -29.63,-29.62zm-20.077,33.716c7.01,0 12.695,5.682 12.695,12.698c0,7.015 -5.686,12.698 -12.695,12.698c-7.014,0 -12.7,-5.683 -12.7,-12.698c-0.001,-7.016 5.686,-12.698 12.7,-12.698zm-45.493,0c7.014,0 12.704,5.682 12.704,12.698c0,7.015 -5.69,12.698 -12.704,12.698c-7.004,0 -12.691,-5.683 -12.691,-12.698c0,-7.016 5.687,-12.698 12.691,-12.698zm61.339,310.097l-310.3,0l0,-253.188l310.306,0l0,253.188l-0.006,0zm-163.492,-158.493l-102.189,46.836l0,-22.562l78.997,-33.85l0,-0.426l-78.997,-33.855l0,-22.558l102.189,46.832l0,19.583zm118.885,39.119l-106.458,0l0,-10.637l106.458,0l0,10.637z"/>
  </g>
  <g id="svg_3"/>
  <g id="svg_4"/>
  <g id="svg_5"/>
  <g id="svg_6"/>
  <g id="svg_7"/>
  <g id="svg_8"/>
  <g id="svg_9"/>
  <g id="svg_10"/>
  <g id="svg_11"/>
  <g id="svg_12"/>
  <g id="svg_13"/>
  <g id="svg_14"/>
  <g id="svg_15"/>
  <g id="svg_16"/>
  <g id="svg_17"/>
 </g>
</svg>