<?xml version="1.0" encoding="UTF-8" standalone="no"?>
<svg
   version="1.1"
   id="Icons"
   x="0px"
   y="0px"
   viewBox="0 0 512 512"
   xml:space="preserve"
   sodipodi:docname="icon_sidewalk.svg"
   inkscape:version="1.2.1 (9c6d41e, 2022-07-14)"
   width="512"
   height="512"
   inkscape:export-filename="icon_sidewalk.png"
   inkscape:export-xdpi="96"
   inkscape:export-ydpi="96"
   xmlns:inkscape="http://www.inkscape.org/namespaces/inkscape"
   xmlns:sodipodi="http://sodipodi.sourceforge.net/DTD/sodipodi-0.dtd"
   xmlns="http://www.w3.org/2000/svg"
   xmlns:svg="http://www.w3.org/2000/svg"><defs
   id="defs21" /><sodipodi:namedview
   id="namedview19"
   pagecolor="#505050"
   bordercolor="#eeeeee"
   borderopacity="1"
   inkscape:showpageshadow="0"
   inkscape:pageopacity="0"
   inkscape:pagecheckerboard="0"
   inkscape:deskcolor="#505050"
   showgrid="false"
   inkscape:zoom="0.87644611"
   inkscape:cx="272.12169"
   inkscape:cy="187.68981"
   inkscape:window-width="1550"
   inkscape:window-height="881"
   inkscape:window-x="0"
   inkscape:window-y="25"
   inkscape:window-maximized="0"
   inkscape:current-layer="Icons" />
<style
   type="text/css"
   id="style2">
	.st0{fill:none;stroke:#000000;stroke-width:2;stroke-linecap:round;stroke-linejoin:round;stroke-miterlimit:10;}
</style>




<rect
   style="fill:#ffffff;stroke-width:5"
   id="rect904"
   width="703.97937"
   height="688.0058"
   x="-110.67423"
   y="-88.995773"
   rx="40.669312"
   ry="40.669312" /><rect
   style="fill:#002b00;stroke:#000000;stroke-width:20.3347;stroke-dasharray:none;stroke-opacity:1"
   id="rect271"
   width="488.03177"
   height="488.03177"
   x="11.714031"
   y="11.714031"
   rx="40.669312"
   ry="40.669312" /><rect
   style="fill:#c8b7b7;stroke-width:5"
   id="rect1010"
   width="933.31464"
   height="168.86377"
   x="-225.91235"
   y="390.21225"
   rx="40.669312"
   ry="40.669312" /><g
   inkscape:groupmode="layer"
   id="layer1"
   inkscape:label="Layer 1"><path
     style="fill:#0a0d45;fill-opacity:1;stroke:none;stroke-width:20.3347;stroke-dasharray:none;stroke-opacity:1"
     d="M 164.77031,149.95841 258.579,34.754762 426.44719,38.046296 301.36893,164.77031 289.84856,230.60097 204.2687,214.14331 Z"
     id="path1995" /></g><ellipse
   style="fill:#333333;fill-opacity:0.52901;stroke-width:4.22024"
   id="path1088"
   cx="180.27348"
   cy="452.39517"
   rx="223.6304"
   ry="62.182945" /><g
   id="g6"
   transform="matrix(13.812068,0,0,13.812068,34.754762,31.463229)"
   style="fill:#1f1818;fill-opacity:1">
	<path
   d="M 27,32 H 17.9 C 16.4,32 15.1,31.4 14,30.4 L 0.3,16.7 c -0.4,-0.4 -0.4,-1 0,-1.4 0.4,-0.4 1,-0.4 1.4,0 L 15.4,29 c 0.7,0.6 1.5,1 2.5,1 H 27 c 0.6,0 1,0.4 1,1 0,0.6 -0.4,1 -1,1 z"
   id="path4"
   style="fill:#1f1818;fill-opacity:1" />
</g><g
   id="g12"
   transform="matrix(13.812068,0,0,13.812068,34.754762,31.463229)"
   style="fill:#020119;fill-opacity:1">
	<path
   d="m 19,15.7 c -0.4,0 -0.8,-0.3 -1,-0.7 -0.7,-2.6 0,-5.5 2,-7.4 l 7.3,-7.3 c 0.4,-0.4 1,-0.4 1.4,0 0.4,0.4 0.4,1 0,1.4 L 21.4,9 c -1.4,1.4 -2,3.5 -1.5,5.5 0.1,0.5 -0.2,1.1 -0.7,1.2 0,0 -0.1,0 -0.2,0 z"
   id="path10"
   style="fill:#020119;fill-opacity:1" />
</g><g
   id="g16"
   transform="matrix(13.812068,0,0,13.812068,34.754762,31.463229)"
   style="fill:#020119;fill-opacity:1">
	<path
   d="M 10,8 C 9.6,8 9.2,7.7 9.1,7.3 8.9,6.8 9.2,6.2 9.7,6.1 11.4,5.5 12.9,4.4 13.8,2.8 L 15.2,0.5 C 15.4,0 16,-0.1 16.5,0.1 17,0.4 17.1,1 16.9,1.5 l -1.4,2.3 c -1.2,2 -3,3.4 -5.2,4.1 C 10.2,8 10.1,8 10,8 Z"
   id="path14"
   inkscape:label="path14"
   style="fill:#020119;fill-opacity:1" />
</g><rect
   style="fill:none;stroke:#000000;stroke-width:20.3347;stroke-dasharray:none;stroke-opacity:1"
   id="rect271-3"
   width="488.03177"
   height="488.03177"
   x="12.13221"
   y="10.991236"
   rx="40.669312"
   ry="40.669312" /><path
   d="M 409.06179,349.14078 H 269.55991 c -8.28724,0 -13.81206,-5.52482 -13.81206,-13.81206 0,-8.28724 5.52482,-13.81207 13.81206,-13.81207 h 80.10999 c -5.52482,-4.14362 -9.66844,-8.28724 -13.81206,-13.81207 h -93.92206 c -8.28724,0 -13.81207,-5.52482 -13.81207,-13.81206 0,-8.28725 5.52483,-13.81207 13.81207,-13.81207 h 77.34758 c -5.52483,-15.19328 -8.28724,-33.14897 -8.28724,-55.24827 0,-4.14362 -1.38121,-6.90604 -4.14362,-9.66845 -2.76241,-2.76242 -5.52483,-4.14362 -9.66845,-4.14362 h -13.81207 c -45.57982,0 -96.68447,-51.10465 -96.68447,-96.68447 0,-5.52483 -4.14362,-11.04966 -8.28724,-12.43087 -5.52483,-2.762409 -12.43086,-1.3812 -16.57448,2.76242 L 65.141311,215.16373 c -4.143622,5.52483 -4.143622,13.81207 0,19.33689 L 241.93578,409.91389 c 13.81207,13.81207 33.14896,22.09934 53.86707,22.09934 h 111.87777 c 6.90601,0 12.43082,-4.14363 13.81207,-11.04969 l 5.5248,-24.86171 c 2.76238,-12.43088 1.38121,-24.86174 -5.5248,-34.53019 -2.76242,-4.14361 -6.90606,-8.28723 -12.4309,-12.43086 z"
   id="path8"
   style="fill:#918a6f;stroke-width:13.8121"
   sodipodi:nodetypes="csssccssscssssscccccsscscc" /></svg>
